<?xml version="1.0" encoding="UTF-8" standalone="no"?>
<!DOCTYPE svg PUBLIC "-//W3C//DTD SVG 20010904//EN"
              "http://www.w3.org/TR/2001/REC-SVG-20010904/DTD/svg10.dtd">

<svg xmlns="http://www.w3.org/2000/svg"
     width="2in" height="2in"
     viewBox="0 0 600 600">
  <path id="Selection"
        fill="currentColor" stroke="currentColor" stroke-width="1"
        d="M 413.00,388.00
           C 413.00,388.00 403.00,378.21 403.00,378.21
             403.00,378.21 391.00,368.00 391.00,368.00
             391.00,368.00 348.37,324.42 348.37,324.42
             348.37,324.42 331.00,306.00 331.00,306.00
             314.89,289.84 298.04,276.83 298.00,252.00
             298.00,252.00 298.00,55.00 298.00,55.00
             298.01,49.63 298.34,43.78 301.09,39.00
             306.98,28.74 320.79,25.23 331.00,31.09
             340.58,36.58 345.98,46.21 346.00,57.00
             346.00,57.00 346.00,187.00 346.00,187.00
             346.00,187.00 346.00,248.00 346.00,248.00
             346.17,256.86 352.21,259.88 357.91,266.00
             357.91,266.00 393.00,302.00 393.00,302.00
             393.00,302.00 400.74,310.26 400.74,310.26
             400.74,310.26 419.83,329.01 419.83,329.01
             419.83,329.01 430.87,341.59 430.87,341.59
             433.58,345.12 433.14,345.79 437.05,350.00
             437.05,350.00 477.96,392.00 477.96,392.00
             477.96,392.00 530.04,447.01 530.04,447.01
             530.04,447.01 571.09,490.00 571.09,490.00
             573.49,492.60 576.13,494.96 578.20,498.00
             581.86,504.21 582.21,514.70 578.20,520.99
             572.44,530.76 559.05,534.05 549.00,528.59
             544.79,526.30 538.54,519.62 535.01,516.00
             535.01,516.00 525.96,506.00 525.96,506.00
             525.96,506.00 484.04,463.00 484.04,463.00
             484.04,463.00 474.00,452.00 474.00,452.00
             470.08,448.04 457.18,434.14 453.00,432.60
             451.06,431.88 448.09,432.00 446.00,432.00
             446.00,432.00 144.00,432.00 144.00,432.00
             141.91,432.00 138.94,431.88 137.00,432.60
             132.31,434.33 119.58,448.62 115.72,453.00
             115.72,453.00 99.09,470.00 99.09,470.00
             99.09,470.00 62.00,509.00 62.00,509.00
             54.24,516.76 41.91,530.85 30.00,529.66
             18.99,528.57 9.20,518.42 10.34,507.00
             11.20,498.31 16.84,493.20 22.28,487.00
             22.28,487.00 55.49,452.28 55.49,452.28
             55.49,452.28 120.96,384.00 120.96,384.00
             120.96,384.00 149.04,354.00 149.04,354.00
             149.04,354.00 165.91,337.00 165.91,337.00
             165.91,337.00 193.00,308.00 193.00,308.00
             193.00,308.00 232.00,268.00 232.00,268.00
             235.16,264.81 245.06,254.65 246.40,251.00
             247.12,249.05 247.00,246.10 247.00,244.00
             247.00,244.00 247.00,56.00 247.00,56.00
             247.02,47.19 249.71,37.98 257.00,32.42
             270.41,22.20 288.95,31.55 292.86,47.00
             293.08,49.08 293.00,51.84 292.86,54.00
             292.86,54.00 292.86,258.00 292.86,258.00
             292.97,279.34 276.82,290.99 263.01,305.00
             263.01,305.00 218.42,350.88 218.42,350.88
             218.42,350.88 197.82,371.86 197.82,371.86
             197.82,371.86 179.00,388.00 179.00,388.00
             179.00,388.00 413.00,388.00 413.00,388.00 Z
           M 200.00,233.72
           C 213.38,230.77 226.58,241.64 227.88,255.09
             228.39,260.33 225.26,267.79 222.27,272.00
             219.33,276.16 206.42,288.58 202.00,293.00
             202.00,293.00 169.00,325.90 169.00,325.90
             169.00,325.90 160.00,333.10 160.00,333.10
             160.00,333.10 119.00,372.99 119.00,372.99
             119.00,372.99 86.00,405.00 86.00,405.00
             86.00,405.00 54.00,437.00 54.00,437.00
             47.14,443.86 43.07,449.83 33.00,451.53
             14.14,454.72 1.11,432.04 12.42,417.00
             12.42,417.00 45.00,384.00 45.00,384.00
             45.00,384.00 100.00,329.00 100.00,329.00
             100.00,329.00 128.83,300.00 128.83,300.00
             128.83,300.00 137.09,290.00 137.09,290.00
             137.09,290.00 170.00,257.00 170.00,257.00
             180.42,246.58 185.72,238.58 200.00,233.72 Z
           M 384.00,233.72
           C 394.68,231.37 402.98,237.67 410.15,244.71
             410.15,244.71 434.88,269.58 434.88,269.58
             434.88,269.58 473.91,308.82 473.91,308.82
             473.91,308.82 515.00,347.09 515.00,347.09
             515.00,347.09 526.00,357.87 526.00,357.87
             526.00,357.87 536.00,365.11 536.00,365.11
             536.00,365.11 569.00,398.00 569.00,398.00
             580.28,409.28 597.42,420.83 589.87,439.00
             588.70,441.81 587.15,443.81 584.96,445.89
             582.36,448.36 580.39,449.50 577.00,450.56
             561.47,455.39 551.96,443.96 542.00,434.00
             542.00,434.00 519.09,412.18 519.09,412.18
             519.09,412.18 457.00,353.91 457.00,353.91
             457.00,353.91 444.00,341.17 444.00,341.17
             444.00,341.17 433.00,331.85 433.00,331.85
             429.13,329.22 428.35,329.78 424.00,325.89
             424.00,325.89 388.00,290.00 388.00,290.00
             381.94,283.94 372.14,275.25 368.25,268.00
             365.37,262.62 364.91,251.57 367.57,246.00
             368.92,243.18 371.58,240.23 374.00,238.28
             377.12,235.76 380.29,234.95 384.00,233.72 Z" />
</svg>
