<?xml version="1.0" encoding="UTF-8" standalone="no"?>
<!DOCTYPE svg PUBLIC "-//W3C//DTD SVG 20010904//EN"
              "http://www.w3.org/TR/2001/REC-SVG-20010904/DTD/svg10.dtd">

<svg xmlns="http://www.w3.org/2000/svg"
     width="1.33333in" height="1.33333in"
     viewBox="0 0 400 400">
  <path id="Selection"
        fill="currentColor" stroke="currentColor" stroke-width="1"
        d="M 89.00,15.11
           C 89.00,15.11 117.00,15.11 117.00,15.11
             117.00,15.11 166.00,15.11 166.00,15.11
             166.00,15.11 303.00,15.11 303.00,15.11
             351.95,15.08 394.92,58.05 395.00,107.00
             395.00,107.00 395.00,293.00 395.00,293.00
             394.92,341.95 351.95,384.92 303.00,385.00
             303.00,385.00 97.00,385.00 97.00,385.00
             48.05,384.92 5.08,341.95 5.00,293.00
             5.00,293.00 5.00,163.00 5.00,163.00
             5.00,163.00 5.00,107.00 5.00,107.00
             5.04,81.67 17.63,56.12 36.00,39.09
             43.05,32.55 49.54,28.97 58.00,24.75
             69.74,18.90 76.27,17.51 89.00,15.11 Z
           M 95.00,26.10
           C 80.91,28.44 70.44,31.04 58.00,38.45
             33.69,52.94 16.34,81.46 16.00,110.00
             16.00,110.00 16.00,288.00 16.00,288.00
             16.07,334.67 55.33,373.93 102.00,374.00
             102.00,374.00 298.00,374.00 298.00,374.00
             344.67,373.93 383.93,334.67 384.00,288.00
             384.00,288.00 384.00,112.00 384.00,112.00
             383.93,65.33 344.67,26.07 298.00,26.10
             298.00,26.10 165.00,26.10 165.00,26.10
             165.00,26.10 95.00,26.10 95.00,26.10 Z
           M 58.11,55.96
           C 64.30,56.20 68.88,62.88 73.00,67.00
             76.74,70.74 84.11,77.33 85.99,82.00
             87.50,85.71 87.00,94.65 87.00,99.00
             87.00,99.00 87.00,133.00 87.00,133.00
             87.00,135.14 87.22,138.78 85.98,140.57
             84.17,143.17 80.11,143.30 78.60,139.85
             77.88,138.22 78.00,134.84 78.00,133.00
             78.00,133.00 78.00,94.00 78.00,94.00
             77.99,92.10 78.05,89.79 77.40,88.00
             75.82,83.66 63.71,71.81 60.02,68.00
             56.38,64.24 51.46,59.54 58.11,55.96 Z
           M 117.98,55.96
           C 120.49,56.06 122.25,56.21 123.16,59.09
             124.41,63.06 118.91,67.13 116.46,69.72
             116.46,69.72 102.02,86.00 102.02,86.00
             101.02,88.00 101.04,89.83 101.00,92.00
             101.00,92.00 101.00,131.00 101.00,131.00
             101.00,133.29 101.13,136.86 100.26,138.94
             98.55,143.04 94.27,143.59 92.17,140.57
             90.77,138.54 91.00,134.43 91.00,132.00
             91.00,132.00 91.00,100.00 91.00,100.00
             91.00,95.74 90.57,86.65 91.88,83.00
             93.90,77.34 101.68,70.32 106.00,66.00
             109.72,62.28 113.13,58.10 117.98,55.96 Z
           M 50.09,67.99
           C 51.81,67.71 51.84,67.33 53.70,67.99
             56.49,69.32 65.95,78.96 67.94,81.58
             70.24,84.60 71.09,88.76 66.40,90.16
             63.65,90.97 60.89,88.56 59.00,86.89
             54.54,82.94 41.45,72.98 50.09,67.99 Z
           M 125.00,68.13
           C 129.83,67.36 132.82,70.34 130.22,75.00
             128.68,77.76 118.80,87.62 116.00,88.97
             111.37,91.22 106.95,88.05 109.78,83.00
             111.90,79.22 121.23,70.47 125.00,68.13 Z
           M 145.00,90.72
           C 150.46,89.44 159.14,90.00 165.00,90.00
             165.00,90.00 200.00,90.00 200.00,90.00
             200.00,90.00 312.00,90.00 312.00,90.00
             312.00,90.00 347.00,90.00 347.00,90.00
             351.12,90.01 354.42,89.75 357.72,92.72
             361.38,96.01 360.99,100.52 361.00,105.00
             361.01,112.41 363.30,125.99 354.98,129.26
             352.78,130.13 349.39,130.00 347.00,130.00
             347.00,130.00 187.00,130.00 187.00,130.00
             187.00,130.00 153.00,130.00 153.00,130.00
             149.04,129.99 144.82,130.29 141.53,127.66
             137.62,124.54 138.01,120.49 138.00,116.00
             137.99,111.44 137.31,98.78 139.29,95.30
             140.71,92.80 142.57,91.93 145.00,90.72 Z
           M 149.06,97.60
           C 147.19,98.75 146.52,98.77 145.60,101.06
             144.31,104.26 144.51,118.07 146.60,120.77
             148.98,123.86 152.46,123.95 156.00,124.00
             156.00,124.00 250.00,124.00 250.00,124.00
             250.00,124.00 343.00,124.00 343.00,124.00
             354.87,123.83 355.13,117.87 355.00,108.00
             354.95,104.84 354.93,101.75 352.57,99.31
             349.98,96.64 346.40,97.01 343.00,97.00
             343.00,97.00 213.00,97.00 213.00,97.00
             213.00,97.00 171.00,97.00 171.00,97.00
             165.18,97.00 154.25,96.46 149.06,97.60 Z
           M 148.00,100.00
           C 148.00,100.00 167.00,100.00 167.00,100.00
             167.00,100.00 167.00,119.00 167.00,119.00
             167.00,119.00 148.00,119.00 148.00,119.00
             148.00,119.00 148.00,100.00 148.00,100.00 Z
           M 171.00,100.00
           C 171.00,100.00 190.00,100.00 190.00,100.00
             190.00,100.00 190.00,119.00 190.00,119.00
             190.00,119.00 171.00,119.00 171.00,119.00
             171.00,119.00 171.00,100.00 171.00,100.00 Z
           M 194.00,100.00
           C 194.00,100.00 213.00,100.00 213.00,100.00
             213.00,100.00 213.00,119.00 213.00,119.00
             213.00,119.00 194.00,119.00 194.00,119.00
             194.00,119.00 194.00,100.00 194.00,100.00 Z
           M 217.00,100.00
           C 217.00,100.00 236.00,100.00 236.00,100.00
             236.00,100.00 236.00,119.00 236.00,119.00
             236.00,119.00 217.00,119.00 217.00,119.00
             217.00,119.00 217.00,100.00 217.00,100.00 Z
           M 240.00,100.00
           C 240.00,100.00 258.00,100.00 258.00,100.00
             258.00,100.00 258.00,119.00 258.00,119.00
             258.00,119.00 240.00,119.00 240.00,119.00
             240.00,119.00 240.00,100.00 240.00,100.00 Z
           M 262.00,100.00
           C 262.00,100.00 281.00,100.00 281.00,100.00
             281.00,100.00 281.00,119.00 281.00,119.00
             281.00,119.00 262.00,119.00 262.00,119.00
             262.00,119.00 262.00,100.00 262.00,100.00 Z
           M 285.00,100.00
           C 285.00,100.00 304.00,100.00 304.00,100.00
             304.00,100.00 304.00,119.00 304.00,119.00
             304.00,119.00 285.00,119.00 285.00,119.00
             285.00,119.00 285.00,100.00 285.00,100.00 Z
           M 308.00,100.00
           C 308.00,100.00 327.00,100.00 327.00,100.00
             327.00,100.00 327.00,119.00 327.00,119.00
             327.00,119.00 308.00,119.00 308.00,119.00
             308.00,119.00 308.00,100.00 308.00,100.00 Z
           M 331.00,100.00
           C 331.00,100.00 350.00,100.00 350.00,100.00
             350.00,100.00 350.00,119.00 350.00,119.00
             350.00,119.00 331.00,119.00 331.00,119.00
             331.00,119.00 331.00,100.00 331.00,100.00 Z
           M 59.11,156.96
           C 65.30,157.20 69.88,163.88 74.00,168.00
             77.74,171.74 85.11,178.33 86.99,183.00
             88.50,186.71 88.00,195.65 88.00,200.00
             88.00,200.00 88.00,234.00 88.00,234.00
             88.00,236.14 88.22,239.78 86.98,241.57
             85.17,244.17 81.11,244.30 79.60,240.85
             78.88,239.22 79.00,235.84 79.00,234.00
             79.00,234.00 79.00,195.00 79.00,195.00
             78.99,193.10 79.05,190.79 78.40,189.00
             76.82,184.66 64.71,172.81 61.02,169.00
             57.38,165.24 52.46,160.54 59.11,156.96 Z
           M 118.98,156.96
           C 121.49,157.06 123.25,157.21 124.16,160.09
             125.41,164.06 119.91,168.13 117.46,170.72
             117.46,170.72 103.02,187.00 103.02,187.00
             102.02,189.00 102.04,190.83 102.00,193.00
             102.00,193.00 102.00,232.00 102.00,232.00
             102.00,234.29 102.13,237.86 101.26,239.94
             99.55,244.04 95.27,244.59 93.17,241.57
             91.77,239.54 92.00,235.43 92.00,233.00
             92.00,233.00 92.00,201.00 92.00,201.00
             92.00,196.74 91.57,187.65 92.88,184.00
             94.90,178.34 102.68,171.32 107.00,167.00
             110.72,163.28 114.13,159.10 118.98,156.96 Z
           M 51.09,168.99
           C 52.81,168.71 52.84,168.33 54.70,168.99
             57.49,170.32 66.95,179.96 68.94,182.58
             71.24,185.60 72.09,189.76 67.40,191.16
             64.65,191.97 61.89,189.56 60.00,187.89
             55.54,183.94 42.45,173.98 51.09,168.99 Z
           M 126.00,169.13
           C 130.83,168.36 133.82,171.34 131.22,176.00
             129.68,178.76 119.80,188.62 117.00,189.97
             112.37,192.22 107.95,189.05 110.78,184.00
             112.90,180.22 122.23,171.47 126.00,169.13 Z
           M 145.00,190.72
           C 150.46,189.44 159.14,190.00 165.00,190.00
             165.00,190.00 200.00,190.00 200.00,190.00
             200.00,190.00 312.00,190.00 312.00,190.00
             312.00,190.00 347.00,190.00 347.00,190.00
             351.12,190.01 354.42,189.75 357.72,192.72
             361.38,196.01 360.99,200.52 361.00,205.00
             361.01,212.41 363.30,225.99 354.98,229.26
             352.78,230.13 349.39,230.00 347.00,230.00
             347.00,230.00 187.00,230.00 187.00,230.00
             187.00,230.00 153.00,230.00 153.00,230.00
             149.04,229.99 144.82,230.29 141.53,227.66
             137.62,224.54 138.01,220.49 138.00,216.00
             137.99,211.44 137.31,198.78 139.29,195.30
             140.71,192.80 142.57,191.93 145.00,190.72 Z
           M 149.06,197.60
           C 147.19,198.75 146.52,198.77 145.60,201.06
             144.31,204.26 144.51,218.07 146.60,220.77
             148.98,223.86 152.46,223.95 156.00,224.00
             156.00,224.00 250.00,224.00 250.00,224.00
             250.00,224.00 343.00,224.00 343.00,224.00
             354.87,223.83 355.13,217.87 355.00,208.00
             354.95,204.84 354.93,201.75 352.57,199.31
             349.98,196.64 346.40,197.01 343.00,197.00
             343.00,197.00 213.00,197.00 213.00,197.00
             213.00,197.00 171.00,197.00 171.00,197.00
             165.18,197.00 154.25,196.46 149.06,197.60 Z
           M 148.00,200.00
           C 148.00,200.00 167.00,200.00 167.00,200.00
             167.00,200.00 167.00,219.00 167.00,219.00
             167.00,219.00 148.00,219.00 148.00,219.00
             148.00,219.00 148.00,200.00 148.00,200.00 Z
           M 171.00,200.00
           C 171.00,200.00 190.00,200.00 190.00,200.00
             190.00,200.00 190.00,219.00 190.00,219.00
             190.00,219.00 171.00,219.00 171.00,219.00
             171.00,219.00 171.00,200.00 171.00,200.00 Z
           M 194.00,200.00
           C 194.00,200.00 213.00,200.00 213.00,200.00
             213.00,200.00 213.00,219.00 213.00,219.00
             213.00,219.00 194.00,219.00 194.00,219.00
             194.00,219.00 194.00,200.00 194.00,200.00 Z
           M 217.00,200.00
           C 217.00,200.00 236.00,200.00 236.00,200.00
             236.00,200.00 236.00,219.00 236.00,219.00
             236.00,219.00 217.00,219.00 217.00,219.00
             217.00,219.00 217.00,200.00 217.00,200.00 Z
           M 240.00,200.00
           C 240.00,200.00 258.00,200.00 258.00,200.00
             258.00,200.00 258.00,219.00 258.00,219.00
             258.00,219.00 240.00,219.00 240.00,219.00
             240.00,219.00 240.00,200.00 240.00,200.00 Z
           M 262.00,200.00
           C 262.00,200.00 281.00,200.00 281.00,200.00
             281.00,200.00 281.00,219.00 281.00,219.00
             281.00,219.00 262.00,219.00 262.00,219.00
             262.00,219.00 262.00,200.00 262.00,200.00 Z
           M 285.00,200.00
           C 285.00,200.00 304.00,200.00 304.00,200.00
             304.00,200.00 304.00,219.00 304.00,219.00
             304.00,219.00 285.00,219.00 285.00,219.00
             285.00,219.00 285.00,200.00 285.00,200.00 Z
           M 308.00,200.00
           C 308.00,200.00 327.00,200.00 327.00,200.00
             327.00,200.00 327.00,219.00 327.00,219.00
             327.00,219.00 308.00,219.00 308.00,219.00
             308.00,219.00 308.00,200.00 308.00,200.00 Z
           M 331.00,200.00
           C 331.00,200.00 350.00,200.00 350.00,200.00
             350.00,200.00 350.00,219.00 350.00,219.00
             350.00,219.00 331.00,219.00 331.00,219.00
             331.00,219.00 331.00,200.00 331.00,200.00 Z
           M 59.11,256.96
           C 65.30,257.20 69.88,263.88 74.00,268.00
             77.74,271.74 85.11,278.33 86.99,283.00
             88.50,286.71 88.00,295.65 88.00,300.00
             88.00,300.00 88.00,334.00 88.00,334.00
             88.00,336.14 88.22,339.78 86.98,341.57
             85.17,344.17 81.11,344.30 79.60,340.85
             78.88,339.22 79.00,335.84 79.00,334.00
             79.00,334.00 79.00,295.00 79.00,295.00
             78.99,293.10 79.05,290.79 78.40,289.00
             76.82,284.66 64.71,272.81 61.02,269.00
             57.38,265.24 52.46,260.54 59.11,256.96 Z
           M 118.98,256.96
           C 121.49,257.06 123.25,257.21 124.16,260.09
             125.41,264.06 119.91,268.13 117.46,270.72
             117.46,270.72 103.02,287.00 103.02,287.00
             102.02,289.00 102.04,290.83 102.00,293.00
             102.00,293.00 102.00,332.00 102.00,332.00
             102.00,334.29 102.13,337.86 101.26,339.94
             99.55,344.04 95.27,344.59 93.17,341.57
             91.77,339.54 92.00,335.43 92.00,333.00
             92.00,333.00 92.00,301.00 92.00,301.00
             92.00,296.74 91.57,287.65 92.88,284.00
             94.90,278.34 102.68,271.32 107.00,267.00
             110.72,263.28 114.13,259.10 118.98,256.96 Z
           M 51.09,268.99
           C 52.81,268.71 52.84,268.33 54.70,268.99
             57.49,270.32 66.95,279.96 68.94,282.58
             71.24,285.60 72.09,289.76 67.40,291.16
             64.65,291.97 61.89,289.56 60.00,287.89
             55.54,283.94 42.45,273.98 51.09,268.99 Z
           M 126.00,269.13
           C 130.83,268.36 133.82,271.34 131.22,276.00
             129.68,278.76 119.80,288.62 117.00,289.97
             112.37,292.22 107.95,289.05 110.78,284.00
             112.90,280.22 122.23,271.47 126.00,269.13 Z
           M 145.00,290.72
           C 150.46,289.44 159.14,290.00 165.00,290.00
             165.00,290.00 200.00,290.00 200.00,290.00
             200.00,290.00 312.00,290.00 312.00,290.00
             312.00,290.00 347.00,290.00 347.00,290.00
             351.12,290.01 354.42,289.75 357.72,292.72
             361.38,296.01 360.99,300.52 361.00,305.00
             361.01,312.41 363.30,325.99 354.98,329.26
             352.78,330.13 349.39,330.00 347.00,330.00
             347.00,330.00 187.00,330.00 187.00,330.00
             187.00,330.00 153.00,330.00 153.00,330.00
             149.04,329.99 144.82,330.29 141.53,327.66
             137.62,324.54 138.01,320.49 138.00,316.00
             137.99,311.44 137.31,298.78 139.29,295.30
             140.71,292.80 142.57,291.93 145.00,290.72 Z
           M 149.06,297.60
           C 147.19,298.75 146.52,298.77 145.60,301.06
             144.31,304.26 144.51,318.07 146.60,320.77
             148.98,323.86 152.46,323.95 156.00,324.00
             156.00,324.00 250.00,324.00 250.00,324.00
             250.00,324.00 343.00,324.00 343.00,324.00
             354.87,323.83 355.13,317.87 355.00,308.00
             354.95,304.84 354.93,301.75 352.57,299.31
             349.98,296.64 346.40,297.01 343.00,297.00
             343.00,297.00 213.00,297.00 213.00,297.00
             213.00,297.00 171.00,297.00 171.00,297.00
             165.18,297.00 154.25,296.46 149.06,297.60 Z
           M 148.00,300.00
           C 148.00,300.00 167.00,300.00 167.00,300.00
             167.00,300.00 167.00,319.00 167.00,319.00
             167.00,319.00 148.00,319.00 148.00,319.00
             148.00,319.00 148.00,300.00 148.00,300.00 Z
           M 171.00,300.00
           C 171.00,300.00 190.00,300.00 190.00,300.00
             190.00,300.00 190.00,319.00 190.00,319.00
             190.00,319.00 171.00,319.00 171.00,319.00
             171.00,319.00 171.00,300.00 171.00,300.00 Z
           M 194.00,300.00
           C 194.00,300.00 213.00,300.00 213.00,300.00
             213.00,300.00 213.00,319.00 213.00,319.00
             213.00,319.00 194.00,319.00 194.00,319.00
             194.00,319.00 194.00,300.00 194.00,300.00 Z
           M 217.00,300.00
           C 217.00,300.00 236.00,300.00 236.00,300.00
             236.00,300.00 236.00,319.00 236.00,319.00
             236.00,319.00 217.00,319.00 217.00,319.00
             217.00,319.00 217.00,300.00 217.00,300.00 Z
           M 240.00,300.00
           C 240.00,300.00 258.00,300.00 258.00,300.00
             258.00,300.00 258.00,319.00 258.00,319.00
             258.00,319.00 240.00,319.00 240.00,319.00
             240.00,319.00 240.00,300.00 240.00,300.00 Z
           M 262.00,300.00
           C 262.00,300.00 281.00,300.00 281.00,300.00
             281.00,300.00 281.00,319.00 281.00,319.00
             281.00,319.00 262.00,319.00 262.00,319.00
             262.00,319.00 262.00,300.00 262.00,300.00 Z
           M 285.00,300.00
           C 285.00,300.00 304.00,300.00 304.00,300.00
             304.00,300.00 304.00,319.00 304.00,319.00
             304.00,319.00 285.00,319.00 285.00,319.00
             285.00,319.00 285.00,300.00 285.00,300.00 Z
           M 308.00,300.00
           C 308.00,300.00 327.00,300.00 327.00,300.00
             327.00,300.00 327.00,319.00 327.00,319.00
             327.00,319.00 308.00,319.00 308.00,319.00
             308.00,319.00 308.00,300.00 308.00,300.00 Z
           M 331.00,300.00
           C 331.00,300.00 350.00,300.00 350.00,300.00
             350.00,300.00 350.00,319.00 350.00,319.00
             350.00,319.00 331.00,319.00 331.00,319.00
             331.00,319.00 331.00,300.00 331.00,300.00 Z" />
</svg>
