<?xml version="1.0" encoding="UTF-8" standalone="no"?>
<!DOCTYPE svg PUBLIC "-//W3C//DTD SVG 20010904//EN"
              "http://www.w3.org/TR/2001/REC-SVG-20010904/DTD/svg10.dtd">

<svg xmlns="http://www.w3.org/2000/svg"
     width="1.33333in" height="1.33333in"
     viewBox="0 0 400 400">
  <path id="Selection"
        fill="currentColor" stroke="currentColor" stroke-width="1"
        d="M 23.00,369.00
           C 23.00,369.00 23.00,55.00 23.00,55.00
             23.00,55.00 23.77,40.00 23.77,40.00
             23.79,37.81 23.11,35.26 23.77,33.17
             24.00,31.72 25.59,29.29 26.40,27.91
             28.18,24.89 29.20,23.00 32.09,20.80
             39.24,15.36 52.00,15.59 58.82,21.53
             61.16,23.57 62.07,25.32 63.60,27.91
             69.49,37.92 66.02,39.85 66.00,51.00
             66.00,51.00 66.00,266.00 66.00,266.00
             66.00,266.00 66.00,321.00 66.00,321.00
             66.05,330.13 67.08,330.98 76.00,331.00
             76.00,331.00 363.00,331.00 363.00,331.00
             372.20,330.99 379.00,328.19 386.96,335.22
             394.70,342.06 395.23,354.56 387.89,361.89
             382.91,366.87 375.83,368.99 369.00,369.00
             369.00,369.00 23.00,369.00 23.00,369.00 Z
           M 323.00,93.47
           C 338.32,91.37 347.93,100.91 348.00,116.00
             348.00,116.00 348.00,291.00 348.00,291.00
             347.99,297.89 347.66,303.52 342.79,308.96
             333.52,319.32 316.30,317.97 309.00,306.00
             306.13,301.29 306.01,296.31 306.00,291.00
             306.00,291.00 306.00,142.00 306.00,142.00
             306.00,142.00 306.00,123.00 306.00,123.00
             306.00,108.82 306.29,97.45 323.00,93.47 Z
           M 175.00,125.47
           C 188.59,123.61 199.81,131.86 200.00,146.00
             200.00,146.00 200.00,291.00 200.00,291.00
             199.99,296.82 199.89,301.00 196.35,306.00
             188.87,316.57 173.28,318.07 164.10,308.90
             154.21,299.00 157.94,290.86 158.00,279.00
             158.00,279.00 158.00,164.00 158.00,164.00
             158.00,147.77 154.45,130.37 175.00,125.47 Z
           M 248.00,157.47
           C 265.08,155.13 272.98,166.17 273.00,182.00
             273.00,182.00 273.00,290.00 273.00,290.00
             272.99,296.89 272.66,302.52 267.79,307.96
             258.52,318.32 241.30,316.97 234.00,305.00
             231.13,300.29 231.01,295.31 231.00,290.00
             231.00,290.00 231.00,180.00 231.00,180.00
             231.14,168.08 235.99,160.33 248.00,157.47 Z
           M 101.00,197.47
           C 117.20,195.25 125.93,205.51 126.04,221.00
             126.04,221.00 126.04,234.00 126.04,234.00
             126.04,234.00 127.00,246.00 127.00,246.00
             127.00,246.00 127.00,285.00 127.00,285.00
             126.84,298.11 124.13,311.70 109.00,314.53
             98.36,316.53 87.84,310.56 84.79,300.00
             83.90,296.93 84.00,294.15 84.00,291.00
             84.00,291.00 84.00,275.00 84.00,275.00
             84.00,275.00 83.00,259.00 83.00,259.00
             83.00,259.00 83.00,223.00 83.00,223.00
             83.02,210.46 88.08,200.55 101.00,197.47 Z" />
</svg>
