<?xml version="1.0" encoding="UTF-8" standalone="no"?>
<!DOCTYPE svg PUBLIC "-//W3C//DTD SVG 20010904//EN"
              "http://www.w3.org/TR/2001/REC-SVG-20010904/DTD/svg10.dtd">

<svg xmlns="http://www.w3.org/2000/svg"
     width="1.33333in" height="1.33333in"
     viewBox="0 0 400 400">
  <path id="Selection"
        fill="currentColor" stroke="currentColor" stroke-width="1"
        d="M 124.00,51.53
           C 133.58,50.04 135.90,54.64 142.05,60.72
             142.05,60.72 164.09,83.04 164.09,83.04
             171.15,90.29 190.00,107.65 193.39,116.00
             195.02,120.02 194.99,123.76 195.00,128.00
             195.00,128.00 195.00,248.00 195.00,248.00
             194.99,251.48 195.27,254.90 193.26,257.96
             188.86,264.67 180.02,265.73 174.57,259.66
             170.95,255.64 171.01,250.06 171.00,245.00
             171.00,245.00 171.00,133.00 171.00,133.00
             170.98,121.78 165.72,119.73 158.00,112.00
             158.00,112.00 125.72,78.91 125.72,78.91
             120.41,73.30 113.25,67.65 115.99,59.00
             116.65,56.93 117.64,55.10 119.34,53.70
             120.93,52.38 122.14,52.14 124.00,51.53 Z
           M 269.00,51.53
           C 276.17,50.51 282.58,53.04 283.63,61.00
             284.75,69.47 274.55,77.74 269.00,83.16
             269.00,83.16 241.00,112.00 241.00,112.00
             233.28,119.73 228.02,121.78 228.00,133.00
             228.00,133.00 228.00,246.00 228.00,246.00
             227.99,250.05 228.14,254.32 225.91,257.91
             221.37,265.25 211.79,265.69 206.51,258.90
             203.74,255.33 204.01,251.25 204.00,247.00
             204.00,247.00 204.00,128.00 204.00,128.00
             204.02,112.33 209.42,109.47 219.58,98.83
             219.58,98.83 239.99,78.00 239.99,78.00
             239.99,78.00 257.85,59.72 257.85,59.72
             262.34,55.24 262.60,53.58 269.00,51.53 Z
           M 105.00,79.74
           C 112.31,78.14 115.75,81.59 120.83,86.42
             120.83,86.42 145.58,111.28 145.58,111.28
             149.43,115.21 154.55,119.96 153.62,126.00
             152.56,132.86 144.92,138.70 138.00,136.11
             133.04,134.25 127.70,127.88 123.93,124.16
             123.93,124.16 116.84,117.07 116.84,117.07
             116.84,117.07 107.93,108.16 107.93,108.16
             100.94,101.29 90.61,92.84 100.13,83.11
             101.96,81.24 102.79,80.89 105.00,79.74 Z
           M 287.00,79.74
           C 294.39,78.03 301.13,82.19 301.89,90.00
             302.63,97.64 297.89,101.27 292.93,106.16
             292.93,106.16 272.42,126.72 272.42,126.72
             269.53,129.64 264.75,134.70 261.00,136.11
             251.06,139.85 241.76,128.26 246.93,119.00
             249.32,114.73 255.35,109.50 258.84,105.92
             264.97,99.60 280.15,83.25 287.00,79.74 Z
           M 20.00,275.53
           C 20.00,275.53 53.00,275.00 53.00,275.00
             53.00,275.00 116.00,275.00 116.00,275.00
             116.00,275.00 310.00,275.00 310.00,275.00
             310.00,275.00 374.00,275.00 374.00,275.00
             388.96,275.18 394.98,283.91 395.00,298.00
             395.00,298.00 395.00,316.00 395.00,316.00
             395.00,328.07 395.50,340.02 381.00,344.21
             377.93,345.10 375.15,345.00 372.00,345.00
             372.00,345.00 90.00,345.00 90.00,345.00
             90.00,345.00 26.00,345.00 26.00,345.00
             11.04,344.82 5.02,336.09 5.00,322.00
             5.00,322.00 5.00,304.00 5.00,304.00
             5.00,290.63 4.45,280.18 20.00,275.53 Z
           M 26.00,286.09
           C 17.36,288.86 16.04,293.84 16.00,302.00
             15.95,311.68 13.04,328.90 24.00,333.11
             26.66,334.13 30.17,334.00 33.00,334.00
             33.00,334.00 97.00,334.00 97.00,334.00
             97.00,334.00 317.00,334.00 317.00,334.00
             317.00,334.00 359.00,334.00 359.00,334.00
             364.18,334.00 373.69,334.80 377.98,332.15
             384.00,328.42 383.99,323.26 384.00,317.00
             384.01,307.44 386.89,291.07 376.00,286.89
             373.34,285.87 369.83,286.00 367.00,286.09
             367.00,286.09 141.00,286.09 141.00,286.09
             141.00,286.09 66.00,286.09 66.00,286.09
             66.00,286.09 26.00,286.09 26.00,286.09 Z
           M 23.00,293.00
           C 23.00,293.00 55.00,293.00 55.00,293.00
             55.00,293.00 55.00,325.00 55.00,325.00
             55.00,325.00 23.00,325.00 23.00,325.00
             23.00,325.00 23.00,293.00 23.00,293.00 Z
           M 63.00,293.00
           C 63.00,293.00 95.00,293.00 95.00,293.00
             95.00,293.00 95.00,325.00 95.00,325.00
             95.00,325.00 63.00,325.00 63.00,325.00
             63.00,325.00 63.00,293.00 63.00,293.00 Z
           M 103.00,293.00
           C 103.00,293.00 135.00,293.00 135.00,293.00
             135.00,293.00 135.00,325.00 135.00,325.00
             135.00,325.00 103.00,325.00 103.00,325.00
             103.00,325.00 103.00,293.00 103.00,293.00 Z
           M 143.00,293.00
           C 143.00,293.00 175.00,293.00 175.00,293.00
             175.00,293.00 175.00,325.00 175.00,325.00
             175.00,325.00 143.00,325.00 143.00,325.00
             143.00,325.00 143.00,293.00 143.00,293.00 Z
           M 183.00,293.00
           C 183.00,293.00 215.00,293.00 215.00,293.00
             215.00,293.00 215.00,325.00 215.00,325.00
             215.00,325.00 183.00,325.00 183.00,325.00
             183.00,325.00 183.00,293.00 183.00,293.00 Z
           M 223.00,293.00
           C 223.00,293.00 255.00,293.00 255.00,293.00
             255.00,293.00 255.00,325.00 255.00,325.00
             255.00,325.00 223.00,325.00 223.00,325.00
             223.00,325.00 223.00,293.00 223.00,293.00 Z
           M 263.00,293.00
           C 263.00,293.00 295.00,293.00 295.00,293.00
             295.00,293.00 295.00,325.00 295.00,325.00
             295.00,325.00 263.00,325.00 263.00,325.00
             263.00,325.00 263.00,293.00 263.00,293.00 Z
           M 303.00,293.00
           C 303.00,293.00 335.00,293.00 335.00,293.00
             335.00,293.00 335.00,325.00 335.00,325.00
             335.00,325.00 303.00,325.00 303.00,325.00
             303.00,325.00 303.00,293.00 303.00,293.00 Z
           M 343.00,293.00
           C 343.00,293.00 375.00,293.00 375.00,293.00
             375.00,293.00 375.00,325.00 375.00,325.00
             375.00,325.00 343.00,325.00 343.00,325.00
             343.00,325.00 343.00,293.00 343.00,293.00 Z" />
</svg>
